<?xml version="1.0" standalone="no"?>
<!DOCTYPE svg PUBLIC "-//W3C//DTD SVG 20010904//EN"
 "http://www.w3.org/TR/2001/REC-SVG-20010904/DTD/svg10.dtd">
<svg version="1.0" xmlns="http://www.w3.org/2000/svg"
 width="30.000000pt" height="30.000000pt" viewBox="0 0 30.000000 30.000000"
 preserveAspectRatio="xMidYMid meet">

<g transform="translate(0.000000,30.000000) scale(0.100000,-0.100000)"
fill="#4824b3" stroke="none">
<path d="M105 251 c-43 -19 -68 -59 -73 -116 -3 -37 -1 -55 7 -55 6 0 11 17
11 40 0 52 18 88 51 106 78 40 149 -11 149 -106 0 -23 5 -40 11 -40 8 0 10 18
7 56 -4 45 -10 61 -35 85 -32 33 -91 46 -128 30z"/>
<path d="M70 85 c0 -39 3 -46 18 -43 13 2 17 13 17 43 0 30 -4 41 -17 43 -15
3 -18 -4 -18 -43z"/>
<path d="M194 116 c-10 -27 1 -71 19 -74 14 -3 17 4 17 42 0 35 -4 46 -15 46
-9 0 -18 -6 -21 -14z"/>
</g>
</svg>
