<?xml version="1.0" standalone="no"?>
<!DOCTYPE svg PUBLIC "-//W3C//DTD SVG 20010904//EN"
 "http://www.w3.org/TR/2001/REC-SVG-20010904/DTD/svg10.dtd">
<svg version="1.0" xmlns="http://www.w3.org/2000/svg"
 width="550.000000pt" height="550.000000pt" viewBox="0 0 4805.000000 1.00000"
 preserveAspectRatio="xMidYMid meet">

<g transform="translate(0.000000,4802.000000) scale(0.100000,-0.100000)"
fill="#ffffff" stroke="none">
<path d="M13875 47958 c-705 -304 -1366 -618 -1950 -925 -2982 -1573 -5615
-3691 -7791 -6268 -1642 -1945 -3003 -4144 -4004 -6470 -59 -137 -110 -260
-114 -272 l-7 -23 2199 0 2200 0 126 240 c840 1599 1928 3159 3132 4490 398
440 1005 1056 1399 1419 1472 1358 3103 2507 4823 3396 l132 69 0 2203 c0
1212 -1 2203 -2 2202 -2 0 -66 -28 -143 -61z"/>
<path d="M34020 45818 l0 -2204 198 -103 c1737 -913 3289 -2009 4758 -3363
417 -383 1065 -1045 1479 -1508 1174 -1315 2227 -2833 3052 -4402 l125 -238
2200 0 2199 0 -7 23 c-13 42 -191 452 -308 710 -1684 3714 -4214 6975 -7411
9548 -1836 1479 -3904 2721 -6065 3644 -113 48 -208 89 -212 92 -5 2 -8 -987
-8 -2199z"/>
<path d="M23392 41989 c-4006 -141 -7800 -1587 -10882 -4148 -780 -648 -1562
-1423 -2222 -2200 -1119 -1320 -2042 -2792 -2745 -4381 -830 -1875 -1332
-3902 -1477 -5970 -34 -473 -40 -681 -40 -1275 -1 -595 6 -821 40 -1285 209
-2945 1120 -5743 2682 -8245 522 -836 1164 -1692 1823 -2431 481 -540 1061
-1114 1605 -1590 3761 -3292 8708 -4861 13709 -4348 3934 403 7647 2111 10515
4836 1773 1684 3160 3662 4135 5893 804 1842 1299 3862 1439 5885 34 484 40
682 40 1280 0 681 -17 1089 -69 1655 -261 2815 -1159 5477 -2653 7870 -522
836 -1164 1692 -1823 2431 -472 529 -1043 1096 -1569 1558 -3310 2907 -7535
4492 -11930 4474 -201 -1 -461 -5 -578 -9z m1159 -3999 c2297 -92 4445 -706
6419 -1833 2152 -1229 3965 -3041 5203 -5198 1437 -2505 2049 -5335 1786
-8254 -323 -3586 -2058 -6937 -4820 -9309 -1806 -1552 -3976 -2618 -6290
-3091 -1251 -255 -2538 -339 -3824 -250 -2241 157 -4393 845 -6310 2018 -1714
1050 -3199 2473 -4321 4142 -1806 2688 -2608 5842 -2313 9100 330 3658 2124
7062 4974 9440 1630 1359 3534 2326 5590 2836 1252 311 2621 450 3906 399z"/>
<path d="M23535 33990 c-665 -36 -1289 -126 -1900 -275 -2410 -587 -4518
-2057 -5917 -4125 -1306 -1931 -1886 -4236 -1657 -6590 42 -438 136 -984 243
-1415 777 -3129 3037 -5707 6041 -6890 982 -387 1931 -598 3050 -677 232 -16
1013 -16 1240 0 1416 103 2633 431 3839 1034 1937 968 3501 2528 4471 4458
496 989 808 1983 965 3075 70 494 94 854 94 1415 0 459 -6 608 -45 1000 -309
3189 -2167 6057 -4969 7673 -1319 760 -2750 1192 -4335 1307 -197 15 -917 21
-1120 10z m820 -4000 c1695 -101 3232 -886 4306 -2200 1265 -1547 1670 -3615
1087 -5550 -464 -1539 -1583 -2865 -3038 -3599 -696 -352 -1374 -542 -2215
-623 -169 -16 -798 -16 -970 0 -837 80 -1520 272 -2215 623 -1751 884 -2964
2570 -3239 4504 -44 309 -55 476 -55 850 -1 364 5 465 45 785 255 2055 1616
3871 3535 4716 854 376 1824 549 2759 494z"/>
<path d="M30 13994 c0 -11 176 -417 295 -679 1687 -3718 4213 -6972 7410
-9546 1885 -1518 4021 -2791 6253 -3724 l32 -14 0 2203 0 2202 -197 104
c-3253 1700 -6072 4234 -8113 7295 -444 665 -902 1438 -1220 2058 l-55 107
-2202 0 c-1212 0 -2203 -3 -2203 -6z"/>
<path d="M43510 13818 c-702 -1343 -1601 -2684 -2594 -3873 -1880 -2249 -4212
-4122 -6783 -5450 l-113 -58 0 -2203 0 -2203 33 14 c683 286 1534 690 2182
1036 2979 1591 5607 3729 7771 6324 1531 1836 2800 3872 3777 6060 96 217 227
521 227 529 0 3 -991 6 -2202 6 l-2203 0 -95 -182z"/>
</g>
</svg>
