<?xml version="1.0" standalone="no"?>
<!DOCTYPE svg PUBLIC "-//W3C//DTD SVG 20010904//EN"
 "http://www.w3.org/TR/2001/REC-SVG-20010904/DTD/svg10.dtd">
<svg version="1.0" xmlns="http://www.w3.org/2000/svg"
 width="3000.000000pt" height="481.000000pt" viewBox="0 0 3000.000000 481.000000"
 preserveAspectRatio="xMidYMid meet">

<g transform="translate(0.000000,481.000000) scale(0.100000,-0.100000)"
fill="#ffffff" stroke="none">
<path d="M1263 4736 c-456 -225 -822 -560 -1085 -992 -66 -110 -168 -312 -168
-334 0 -6 86 -10 220 -10 121 0 220 4 220 8 0 18 124 216 196 313 177 237 443
469 701 610 l63 34 0 218 c0 119 -4 217 -9 217 -5 0 -67 -29 -138 -64z"/>
<path d="M3410 4581 l0 -219 78 -42 c334 -180 691 -542 856 -868 l26 -52 220
0 c121 0 220 3 220 8 0 17 -112 236 -170 332 -255 423 -633 771 -1074 991 -77
38 -143 69 -148 69 -4 0 -8 -99 -8 -219z"/>
<path d="M20995 4349 c-133 -11 -281 -49 -385 -100 -65 -33 -102 -60 -160
-118 -172 -174 -230 -362 -230 -748 l0 -193 -222 -2 -223 -3 -3 -317 -2 -318
220 0 220 0 2 -1022 3 -1023 410 0 410 0 3 1023 2 1022 265 0 265 0 -2 318 -3
317 -263 3 -264 2 4 178 c3 155 6 183 24 223 40 86 152 104 278 46 33 -15 63
-24 67 -20 13 14 262 614 256 619 -3 3 -56 23 -117 45 -176 62 -354 84 -555
68z"/>
<path d="M7612 4253 c-105 -246 -1546 -3714 -1549 -3731 l-5 -22 463 2 464 3
110 288 c61 158 116 301 122 317 l11 30 714 0 713 0 120 -318 120 -317 464 -3
463 -2 -5 22 c-4 22 -1492 3615 -1542 3726 l-24 52 -309 0 -310 0 -20 -47z
m547 -1802 c111 -293 200 -535 198 -537 -2 -2 -190 -3 -418 -2 l-414 3 209
548 c122 320 213 543 217 535 4 -7 98 -253 208 -547z"/>
<path d="M14607 4293 c-4 -3 -7 -324 -7 -712 l-1 -706 -21 30 c-50 71 -194
201 -263 237 -267 139 -576 138 -860 -2 -355 -175 -578 -541 -636 -1039 -17
-156 -7 -496 20 -641 36 -191 118 -411 204 -546 243 -385 688 -555 1124 -428
156 45 272 124 376 254 l56 71 3 -153 3 -153 408 -3 407 -2 0 1900 0 1900
-403 0 c-222 0 -407 -3 -410 -7z m-325 -1814 c129 -27 251 -122 315 -244 61
-116 78 -200 77 -385 0 -189 -13 -259 -71 -380 -44 -91 -132 -183 -213 -221
-148 -71 -345 -66 -492 13 -183 97 -283 343 -264 649 18 308 148 502 377 563
65 18 199 20 271 5z"/>
<path d="M15835 4287 c-3 -6 -4 -174 -3 -372 l3 -360 418 -3 417 -2 0 375 0
375 -415 0 c-324 0 -417 -3 -420 -13z"/>
<path d="M29187 4293 c-4 -3 -7 -324 -7 -712 l-1 -706 -26 35 c-52 68 -180
185 -243 223 -144 84 -355 127 -528 108 -527 -58 -889 -461 -978 -1088 -22
-158 -22 -459 1 -608 66 -438 240 -757 515 -942 270 -182 660 -210 956 -68 76
36 195 139 265 228 l38 48 3 -153 3 -153 408 -3 407 -2 0 1900 0 1900 -403 0
c-222 0 -407 -3 -410 -7z m-325 -1814 c180 -39 321 -191 375 -404 26 -106 23
-363 -5 -468 -31 -112 -79 -202 -142 -268 -93 -95 -205 -139 -355 -139 -259 0
-439 150 -502 417 -25 106 -25 367 0 467 28 112 73 193 146 267 100 99 194
137 348 138 45 1 106 -4 135 -10z"/>
<path d="M2170 4186 c-604 -87 -1106 -449 -1378 -991 -125 -250 -186 -518
-184 -810 4 -855 611 -1587 1458 -1755 155 -31 428 -38 584 -16 302 44 570
150 813 323 108 76 328 296 404 403 123 174 207 344 266 540 48 158 67 279 74
455 34 900 -598 1679 -1492 1840 -124 22 -423 28 -545 11z m525 -416 c272 -61
485 -174 676 -357 193 -186 312 -380 385 -628 74 -252 70 -556 -12 -809 -154
-481 -546 -836 -1045 -948 -138 -31 -436 -33 -567 -5 -279 61 -515 189 -712
387 -192 191 -306 395 -377 670 -25 97 -27 121 -28 310 0 164 4 222 19 290 95
433 361 777 755 974 141 71 298 118 471 140 84 10 347 -4 435 -24z"/>
<path d="M2265 3390 c-256 -38 -500 -183 -657 -390 -62 -81 -140 -239 -170
-345 -20 -71 -23 -101 -22 -260 0 -167 2 -187 28 -270 106 -349 356 -594 712
-697 68 -20 102 -23 249 -23 147 0 182 3 255 23 672 184 959 950 575 1532
-204 309 -601 485 -970 430z m270 -405 c199 -42 373 -197 442 -397 21 -60 26
-93 26 -183 2 -176 -44 -293 -166 -422 -113 -119 -261 -183 -424 -183 -110 0
-172 14 -272 62 -152 72 -271 219 -316 388 -19 73 -19 217 1 294 81 315 391
508 709 441z"/>
<path d="M18185 3240 c-329 -35 -611 -166 -829 -384 -189 -189 -308 -412 -368
-689 -19 -88 -22 -132 -22 -317 0 -239 14 -332 75 -507 164 -464 556 -794
1044 -879 135 -23 376 -23 510 1 579 101 993 525 1101 1125 24 130 23 389 0
525 -90 514 -429 911 -908 1064 -173 55 -423 80 -603 61z m318 -735 c184 -48
314 -192 364 -402 28 -119 25 -418 -5 -528 -58 -213 -177 -343 -357 -390 -77
-20 -252 -20 -328 0 -125 32 -227 109 -292 220 -137 231 -136 661 1 887 62
102 168 181 287 213 71 19 258 19 330 0z"/>
<path d="M22799 3240 c-599 -58 -992 -430 -1131 -1070 -19 -92 -22 -134 -23
-335 0 -258 9 -324 71 -525 145 -466 501 -769 994 -844 290 -44 646 -20 890
60 144 47 542 261 556 299 5 11 -301 530 -331 563 -10 11 -21 7 -62 -22 -110
-79 -297 -156 -465 -192 -105 -23 -356 -26 -438 -5 -143 35 -260 105 -320 189
-34 46 -80 159 -80 193 0 5 369 9 880 9 l879 0 8 38 c4 20 7 125 7 232 -1 227
-23 379 -81 563 -144 459 -471 752 -928 832 -106 18 -316 26 -426 15z m315
-695 c180 -47 316 -179 333 -325 l6 -50 -502 0 -502 0 6 23 c20 67 80 173 126
222 57 61 162 119 239 134 74 15 231 12 294 -4z"/>
<path d="M9934 3177 c-3 -8 -3 -425 -1 -928 3 -998 2 -977 64 -1173 86 -276
260 -468 508 -561 96 -37 172 -53 309 -65 349 -33 653 83 823 313 l42 58 3
-158 3 -158 410 0 410 0 0 1340 0 1340 -410 0 -410 0 -6 -675 c-4 -416 -11
-719 -18 -789 -28 -260 -106 -436 -225 -506 -84 -49 -242 -68 -371 -44 -146
27 -240 119 -284 278 -13 48 -16 182 -20 896 l-6 840 -408 3 c-336 2 -408 0
-413 -11z"/>
<path d="M15840 1845 l0 -1345 410 0 410 0 0 1345 0 1345 -410 0 -410 0 0
-1345z"/>
<path d="M24513 2253 c3 -906 4 -941 24 -1033 56 -253 135 -406 281 -541 152
-140 318 -206 575 -229 354 -32 666 88 823 316 l39 56 3 -161 2 -161 410 0
410 0 0 1345 0 1345 -409 0 -409 0 -5 -667 c-5 -685 -12 -832 -47 -981 -24
-100 -75 -214 -118 -263 -72 -83 -213 -127 -371 -116 -116 8 -182 31 -242 85
-59 53 -92 106 -116 187 -16 55 -18 134 -23 905 l-5 845 -413 3 -413 2 4 -937z"/>
<path d="M10 1388 c0 -7 32 -75 70 -152 258 -511 675 -924 1183 -1172 73 -35
135 -64 140 -64 4 0 7 98 7 219 l0 218 -60 32 c-332 177 -660 498 -846 826
l-59 104 -217 1 c-168 0 -218 -3 -218 -12z"/>
<path d="M4331 1325 c-186 -339 -507 -660 -846 -846 l-75 -41 0 -219 c0 -120
3 -219 7 -219 4 0 71 31 148 69 265 131 490 297 705 517 203 208 338 397 467
652 40 79 73 148 73 153 0 5 -94 9 -219 9 l-219 0 -41 -75z"/>
</g>
</svg>
